<svg width="27" height="13" viewBox="0 0 27 13" fill="none" xmlns="http://www.w3.org/2000/svg">
<path d="M0 6.4C0 4.15979 0 3.03968 0.435974 2.18404C0.819467 1.43139 1.43139 0.819467 2.18404 0.435974C3.03968 0 4.15979 0 6.4 0H18.6C20.8402 0 21.9603 0 22.816 0.435974C23.5686 0.819467 24.1805 1.43139 24.564 2.18404C25 3.03968 25 4.15979 25 6.4V6.6C25 8.84021 25 9.96032 24.564 10.816C24.1805 11.5686 23.5686 12.1805 22.816 12.564C21.9603 13 20.8402 13 18.6 13H6.4C4.15979 13 3.03968 13 2.18404 12.564C1.43139 12.1805 0.819467 11.5686 0.435974 10.816C0 9.96032 0 8.84021 0 6.6V6.4Z" fill="#B2B2B2"/>
<path d="M0 6.4C0 4.15979 0 3.03968 0.435974 2.18404C0.819467 1.43139 1.43139 0.819467 2.18404 0.435974C3.03968 0 4.15979 0 6.4 0H10V13H6.4C4.15979 13 3.03968 13 2.18404 12.564C1.43139 12.1805 0.819467 11.5686 0.435974 10.816C0 9.96032 0 8.84021 0 6.6V6.4Z" fill="white"/>
<path d="M25.5 4C25.8978 4 26.2794 4.26339 26.5607 4.73223C26.842 5.20107 27 5.83696 27 6.5C27 7.16304 26.842 7.79893 26.5607 8.26777C26.2794 8.73661 25.8978 9 25.5 9L25.5 6.5V4Z" fill="#B2B2B2"/>
<path d="M8.50342 10.1343C6.74707 10.1343 5.59766 9.21045 5.49023 7.87305L5.48486 7.80322H7.03174L7.04248 7.8623C7.1123 8.41553 7.66016 8.8291 8.49805 8.8291C9.33057 8.8291 9.86768 8.3833 9.86768 7.74951V7.73877C9.86768 6.99756 9.31445 6.58936 8.37988 6.58936H7.49365V5.43457H8.3584C9.16943 5.43457 9.6958 5.00488 9.6958 4.37646V4.36572C9.6958 3.7373 9.25 3.36133 8.4873 3.36133C7.72998 3.36133 7.21436 3.75342 7.1499 4.35498L7.14453 4.40332H5.65674L5.66211 4.33887C5.76953 2.99609 6.85986 2.11523 8.4873 2.11523C10.1577 2.11523 11.2319 2.93164 11.2319 4.15088V4.16162C11.2319 5.12842 10.5229 5.75684 9.61523 5.94482V5.97705C10.7646 6.08447 11.5166 6.75049 11.5166 7.80322V7.81396C11.5166 9.19971 10.3135 10.1343 8.50342 10.1343ZM15.4321 10.1343C13.6758 10.1343 12.5264 9.21045 12.4189 7.87305L12.4136 7.80322H13.9604L13.9712 7.8623C14.041 8.41553 14.5889 8.8291 15.4268 8.8291C16.2593 8.8291 16.7964 8.3833 16.7964 7.74951V7.73877C16.7964 6.99756 16.2432 6.58936 15.3086 6.58936H14.4224V5.43457H15.2871C16.0981 5.43457 16.6245 5.00488 16.6245 4.37646V4.36572C16.6245 3.7373 16.1787 3.36133 15.416 3.36133C14.6587 3.36133 14.1431 3.75342 14.0786 4.35498L14.0732 4.40332H12.5854L12.5908 4.33887C12.6982 2.99609 13.7886 2.11523 15.416 2.11523C17.0864 2.11523 18.1606 2.93164 18.1606 4.15088V4.16162C18.1606 5.12842 17.4517 5.75684 16.5439 5.94482V5.97705C17.6934 6.08447 18.4453 6.75049 18.4453 7.80322V7.81396C18.4453 9.19971 17.2422 10.1343 15.4321 10.1343Z" fill="black"/>
</svg>
