<svg width="27" height="13" viewBox="0 0 27 13" fill="none" xmlns="http://www.w3.org/2000/svg">
<path d="M0 6.4C0 4.15979 0 3.03968 0.435974 2.18404C0.819467 1.43139 1.43139 0.819467 2.18404 0.435974C3.03968 0 4.15979 0 6.4 0H18.6C20.8402 0 21.9603 0 22.816 0.435974C23.5686 0.819467 24.1805 1.43139 24.564 2.18404C25 3.03968 25 4.15979 25 6.4V6.6C25 8.84021 25 9.96032 24.564 10.816C24.1805 11.5686 23.5686 12.1805 22.816 12.564C21.9603 13 20.8402 13 18.6 13H6.4C4.15979 13 3.03968 13 2.18404 12.564C1.43139 12.1805 0.819467 11.5686 0.435974 10.816C0 9.96032 0 8.84021 0 6.6V6.4Z" fill="#B2B2B2"/>
<path d="M0 6.4C0 4.15979 0 3.03968 0.435974 2.18404C0.819467 1.43139 1.43139 0.819467 2.18404 0.435974C3.03968 0 4.15979 0 6.4 0H12V13H6.4C4.15979 13 3.03968 13 2.18404 12.564C1.43139 12.1805 0.819467 11.5686 0.435974 10.816C0 9.96032 0 8.84021 0 6.6V6.4Z" fill="white"/>
<path d="M25.5 4C25.8978 4 26.2794 4.26339 26.5607 4.73223C26.842 5.20107 27 5.83696 27 6.5C27 7.16304 26.842 7.79893 26.5607 8.26777C26.2794 8.73661 25.8978 9 25.5 9L25.5 6.5V4Z" fill="#B2B2B2"/>
<path d="M10.2446 10V8.57666H6.38818V7.22314L9.49805 2.24951H11.7861V7.28223H12.8066V8.57666H11.7861V10H10.2446ZM7.80078 7.3252H10.2769V3.42041H10.2393L7.80078 7.28223V7.3252ZM16.647 10.1343C14.9604 10.1343 13.8433 9.15137 13.7466 7.85693L13.7412 7.77637H15.2397L15.2505 7.81396C15.3633 8.39941 15.9058 8.85059 16.6523 8.85059C17.501 8.85059 18.0972 8.27051 18.0972 7.44336V7.43262C18.0918 6.61621 17.4956 6.0415 16.6577 6.0415C16.2603 6.0415 15.9219 6.15967 15.6587 6.36914C15.5029 6.4873 15.3794 6.6377 15.2881 6.79883H13.8755L14.23 2.24951H19.1768V3.53857H15.519L15.3311 5.71924H15.3633C15.6855 5.19824 16.3247 4.88135 17.1089 4.88135C18.5806 4.88135 19.644 5.93945 19.644 7.40039V7.41113C19.644 9.0332 18.4194 10.1343 16.647 10.1343Z" fill="black"/>
</svg>
