<svg width="27" height="13" viewBox="0 0 27 13" fill="none" xmlns="http://www.w3.org/2000/svg">
<path d="M25.5 4.5C25.8978 4.5 26.2794 4.71071 26.5607 5.08579C26.842 5.46086 27 5.96957 27 6.5C27 7.03043 26.842 7.53914 26.5607 7.91421C26.2794 8.28929 25.8978 8.5 25.5 8.5L25.5 6.5V4.5Z" fill="#B2B2B2"/>
<rect width="25" height="13" rx="4" fill="#B2B2B2"/>
<path d="M0 4C0 1.79086 1.79086 0 4 0V0V13V13C1.79086 13 0 11.2091 0 9V4Z" fill="#FA3532"/>
<path d="M9.32715 10V4.30664H9.29785L7.50098 5.52734V4.21875L9.32227 2.9541H10.7871V10H9.32715ZM14.6523 10.1221C12.8652 10.1221 11.7812 8.7207 11.7812 6.47949V6.46973C11.7812 4.22852 12.8652 2.83203 14.6523 2.83203C16.4395 2.83203 17.5234 4.22852 17.5234 6.46973V6.47949C17.5234 8.7207 16.4395 10.1221 14.6523 10.1221ZM14.6523 8.94043C15.5312 8.94043 16.0342 8.02734 16.0342 6.47949V6.46973C16.0342 4.92188 15.5312 4.01367 14.6523 4.01367C13.7734 4.01367 13.2705 4.92188 13.2705 6.46973V6.47949C13.2705 8.02734 13.7734 8.94043 14.6523 8.94043Z" fill="white"/>
</svg>
