<svg width="27" height="13" viewBox="0 0 27 13" fill="none" xmlns="http://www.w3.org/2000/svg">
<path d="M0 6.4C0 4.15979 0 3.03968 0.435974 2.18404C0.819467 1.43139 1.43139 0.819467 2.18404 0.435974C3.03968 0 4.15979 0 6.4 0H18.6C20.8402 0 21.9603 0 22.816 0.435974C23.5686 0.819467 24.1805 1.43139 24.564 2.18404C25 3.03968 25 4.15979 25 6.4V6.6C25 8.84021 25 9.96032 24.564 10.816C24.1805 11.5686 23.5686 12.1805 22.816 12.564C21.9603 13 20.8402 13 18.6 13H6.4C4.15979 13 3.03968 13 2.18404 12.564C1.43139 12.1805 0.819467 11.5686 0.435974 10.816C0 9.96032 0 8.84021 0 6.6V6.4Z" fill="#B2B2B2"/>
<path d="M0 6.4C0 4.15979 0 3.03968 0.435974 2.18404C0.819467 1.43139 1.43139 0.819467 2.18404 0.435974C3.03968 0 4.15979 0 6.4 0H20V13H6.4C4.15979 13 3.03968 13 2.18404 12.564C1.43139 12.1805 0.819467 11.5686 0.435974 10.816C0 9.96032 0 8.84021 0 6.6V6.4Z" fill="white"/>
<path d="M25.5 4C25.8978 4 26.2794 4.26339 26.5607 4.73223C26.842 5.20107 27 5.83696 27 6.5C27 7.16304 26.842 7.79893 26.5607 8.26777C26.2794 8.73661 25.8978 9 25.5 9L25.5 6.5V4Z" fill="#B2B2B2"/>
<path d="M9.85742 10.1343C8.00977 10.1343 6.73145 9.21582 6.73145 7.88379V7.87305C6.73145 6.86865 7.47803 6.12744 8.52002 5.92334V5.89111C7.62305 5.6709 7.01611 5.021 7.01611 4.19385V4.18311C7.01611 2.98535 8.18164 2.11523 9.85742 2.11523C11.5278 2.11523 12.6987 2.98535 12.6987 4.18311V4.19385C12.6987 5.021 12.0864 5.6709 11.1948 5.89111V5.92334C12.2314 6.12744 12.978 6.86865 12.978 7.87305V7.88379C12.978 9.21582 11.7051 10.1343 9.85742 10.1343ZM9.85742 5.40234C10.5879 5.40234 11.0928 4.96729 11.0928 4.34424V4.3335C11.0928 3.71582 10.5825 3.28613 9.85742 3.28613C9.13232 3.28613 8.6167 3.71582 8.6167 4.3335V4.34424C8.6167 4.96729 9.12695 5.40234 9.85742 5.40234ZM9.85742 8.95264C10.7007 8.95264 11.2969 8.4585 11.2969 7.77637V7.76562C11.2969 7.07812 10.7114 6.57861 9.85742 6.57861C9.00342 6.57861 8.4126 7.07812 8.4126 7.76562V7.77637C8.4126 8.4585 9.00879 8.95264 9.85742 8.95264ZM15.916 10V3.7373H15.8838L13.9072 5.08008V3.64062L15.9106 2.24951H17.522V10H15.916Z" fill="black"/>
</svg>
