<svg width="27" height="13" viewBox="0 0 27 13" fill="none" xmlns="http://www.w3.org/2000/svg">
<path d="M0 6.4C0 4.15979 0 3.03968 0.435974 2.18404C0.819467 1.43139 1.43139 0.819467 2.18404 0.435974C3.03968 0 4.15979 0 6.4 0H18.6C20.8402 0 21.9603 0 22.816 0.435974C23.5686 0.819467 24.1805 1.43139 24.564 2.18404C25 3.03968 25 4.15979 25 6.4V6.6C25 8.84021 25 9.96032 24.564 10.816C24.1805 11.5686 23.5686 12.1805 22.816 12.564C21.9603 13 20.8402 13 18.6 13H6.4C4.15979 13 3.03968 13 2.18404 12.564C1.43139 12.1805 0.819467 11.5686 0.435974 10.816C0 9.96032 0 8.84021 0 6.6V6.4Z" fill="black" fill-opacity="0.4"/>
<path d="M0 6.4C0 4.15979 0 3.03968 0.435974 2.18404C0.819467 1.43139 1.43139 0.819467 2.18404 0.435974C3.03968 0 4.15979 0 6.4 0H18.6C20.8402 0 21.9603 0 22.816 0.435974C23.5686 0.819467 24.1805 1.43139 24.564 2.18404C25 3.03968 25 4.15979 25 6.4V6.6C25 8.84021 25 9.96032 24.564 10.816C24.1805 11.5686 23.5686 12.1805 22.816 12.564C21.9603 13 20.8402 13 18.6 13H6.4C4.15979 13 3.03968 13 2.18404 12.564C1.43139 12.1805 0.819467 11.5686 0.435974 10.816C0 9.96032 0 8.84021 0 6.6V6.4Z" fill="#37C058"/>
<path d="M25.5 4C25.8978 4 26.2794 4.26339 26.5607 4.73223C26.842 5.20107 27 5.83696 27 6.5C27 7.16304 26.842 7.79893 26.5607 8.26777C26.2794 8.73661 25.8978 9 25.5 9L25.5 6.5V4Z" fill="#37C058"/>
<path d="M5.62549 10V3.7373H5.59326L3.6167 5.08008V3.64062L5.62012 2.24951H7.23145V10H5.62549ZM12.0332 10.1343C10.0674 10.1343 8.875 8.59277 8.875 6.12744V6.1167C8.875 3.65137 10.0674 2.11523 12.0332 2.11523C13.999 2.11523 15.1914 3.65137 15.1914 6.1167V6.12744C15.1914 8.59277 13.999 10.1343 12.0332 10.1343ZM12.0332 8.83447C13 8.83447 13.5532 7.83008 13.5532 6.12744V6.1167C13.5532 4.41406 13 3.41504 12.0332 3.41504C11.0664 3.41504 10.5132 4.41406 10.5132 6.1167V6.12744C10.5132 7.83008 11.0664 8.83447 12.0332 8.83447ZM19.252 10.1343C17.2861 10.1343 16.0938 8.59277 16.0938 6.12744V6.1167C16.0938 3.65137 17.2861 2.11523 19.252 2.11523C21.2178 2.11523 22.4102 3.65137 22.4102 6.1167V6.12744C22.4102 8.59277 21.2178 10.1343 19.252 10.1343ZM19.252 8.83447C20.2188 8.83447 20.772 7.83008 20.772 6.12744V6.1167C20.772 4.41406 20.2188 3.41504 19.252 3.41504C18.2852 3.41504 17.7319 4.41406 17.7319 6.1167V6.12744C17.7319 7.83008 18.2852 8.83447 19.252 8.83447Z" fill="black"/>
</svg>
