<svg width="27" height="13" viewBox="0 0 27 13" fill="none" xmlns="http://www.w3.org/2000/svg">
<path d="M0 6.4C0 4.15979 0 3.03968 0.435974 2.18404C0.819467 1.43139 1.43139 0.819467 2.18404 0.435974C3.03968 0 4.15979 0 6.4 0H18.6C20.8402 0 21.9603 0 22.816 0.435974C23.5686 0.819467 24.1805 1.43139 24.564 2.18404C25 3.03968 25 4.15979 25 6.4V6.6C25 8.84021 25 9.96032 24.564 10.816C24.1805 11.5686 23.5686 12.1805 22.816 12.564C21.9603 13 20.8402 13 18.6 13H6.4C4.15979 13 3.03968 13 2.18404 12.564C1.43139 12.1805 0.819467 11.5686 0.435974 10.816C0 9.96032 0 8.84021 0 6.6V6.4Z" fill="#B2B2B2"/>
<path d="M0 6.4C0 4.15979 0 3.03968 0.435974 2.18404C0.819467 1.43139 1.43139 0.819467 2.18404 0.435974C3.03968 0 4.15979 0 6.4 0H17V13H6.4C4.15979 13 3.03968 13 2.18404 12.564C1.43139 12.1805 0.819467 11.5686 0.435974 10.816C0 9.96032 0 8.84021 0 6.6V6.4Z" fill="white"/>
<path d="M25.5 4C25.8978 4 26.2794 4.26339 26.5607 4.73223C26.842 5.20107 27 5.83696 27 6.5C27 7.16304 26.842 7.79893 26.5607 8.26777C26.2794 8.73661 25.8978 9 25.5 9L25.5 6.5V4Z" fill="#B2B2B2"/>
<path d="M9.01416 10.1343C7.14502 10.1343 5.78076 8.81836 5.78076 6.19189V6.18115C5.78076 3.64062 7.01074 2.11523 9.03027 2.11523C10.5288 2.11523 11.6567 2.97998 11.8877 4.17773L11.8984 4.23145H10.2979L10.2817 4.18311C10.0884 3.71582 9.65869 3.39893 9.0249 3.39893C7.8916 3.39893 7.39746 4.47852 7.33838 5.84814C7.33301 5.95557 7.32764 6.06299 7.32764 6.14355H7.35986C7.66602 5.42383 8.42871 4.89746 9.47607 4.89746C10.9746 4.89746 12.0005 5.96094 12.0005 7.41113V7.42188C12.0005 9.00635 10.7383 10.1343 9.01416 10.1343ZM7.57471 7.45947C7.57471 8.23828 8.19775 8.84521 8.99268 8.84521C9.78223 8.84521 10.4214 8.24365 10.4214 7.48096V7.47021C10.4214 6.66455 9.81445 6.09521 9.00879 6.09521C8.19775 6.09521 7.57471 6.65918 7.57471 7.44873V7.45947ZM16.0879 10.1343C14.2402 10.1343 12.9619 9.21582 12.9619 7.88379V7.87305C12.9619 6.86865 13.7085 6.12744 14.7505 5.92334V5.89111C13.8535 5.6709 13.2466 5.021 13.2466 4.19385V4.18311C13.2466 2.98535 14.4121 2.11523 16.0879 2.11523C17.7583 2.11523 18.9292 2.98535 18.9292 4.18311V4.19385C18.9292 5.021 18.3169 5.6709 17.4253 5.89111V5.92334C18.4619 6.12744 19.2085 6.86865 19.2085 7.87305V7.88379C19.2085 9.21582 17.9355 10.1343 16.0879 10.1343ZM16.0879 5.40234C16.8184 5.40234 17.3232 4.96729 17.3232 4.34424V4.3335C17.3232 3.71582 16.813 3.28613 16.0879 3.28613C15.3628 3.28613 14.8472 3.71582 14.8472 4.3335V4.34424C14.8472 4.96729 15.3574 5.40234 16.0879 5.40234ZM16.0879 8.95264C16.9312 8.95264 17.5273 8.4585 17.5273 7.77637V7.76562C17.5273 7.07812 16.9419 6.57861 16.0879 6.57861C15.2339 6.57861 14.6431 7.07812 14.6431 7.76562V7.77637C14.6431 8.4585 15.2393 8.95264 16.0879 8.95264Z" fill="black"/>
</svg>
