<svg width="27" height="13" viewBox="0 0 27 13" fill="none" xmlns="http://www.w3.org/2000/svg">
<path d="M0 6.4C0 4.15979 0 3.03968 0.435974 2.18404C0.819467 1.43139 1.43139 0.819467 2.18404 0.435974C3.03968 0 4.15979 0 6.4 0H18.6C20.8402 0 21.9603 0 22.816 0.435974C23.5686 0.819467 24.1805 1.43139 24.564 2.18404C25 3.03968 25 4.15979 25 6.4V6.6C25 8.84021 25 9.96032 24.564 10.816C24.1805 11.5686 23.5686 12.1805 22.816 12.564C21.9603 13 20.8402 13 18.6 13H6.4C4.15979 13 3.03968 13 2.18404 12.564C1.43139 12.1805 0.819467 11.5686 0.435974 10.816C0 9.96032 0 8.84021 0 6.6V6.4Z" fill="#B2B2B2"/>
<path d="M0 6C0 4.13623 0 3.20435 0.304482 2.46927C0.710458 1.48915 1.48915 0.710458 2.46927 0.304482C3.20435 0 4.13623 0 6 0V0V13V13C4.13623 13 3.20435 13 2.46927 12.6955C1.48915 12.2895 0.710458 11.5108 0.304482 10.5307C0 9.79565 0 8.86377 0 7V6Z" fill="white"/>
<path d="M25.5 4C25.8978 4 26.2794 4.26339 26.5607 4.73223C26.842 5.20107 27 5.83696 27 6.5C27 7.16304 26.842 7.79893 26.5607 8.26777C26.2794 8.73661 25.8978 9 25.5 9L25.5 6.5V4Z" fill="#B2B2B2"/>
<path d="M7.58594 10V8.88818L10.3252 6.32617C11.3242 5.3916 11.5337 5.01025 11.5337 4.47314V4.4624C11.5283 3.82861 11.0449 3.37744 10.3574 3.37744C9.5625 3.37744 9.02539 3.89844 9.00391 4.59668L8.99854 4.64502H7.49463V4.60205C7.49463 3.14111 8.7085 2.11523 10.3467 2.11523C11.9849 2.11523 13.1128 3.0498 13.1128 4.37109V4.38184C13.1128 5.32178 12.667 5.93408 11.3296 7.16406L9.70752 8.64648V8.71094H13.2202V10H7.58594ZM16.1636 10V3.7373H16.1313L14.1548 5.08008V3.64062L16.1582 2.24951H17.7695V10H16.1636Z" fill="black"/>
</svg>
