<svg id="Capa_1" enable-background="new 0 0 512 512" height="512" viewBox="0 0 512 512" width="512" xmlns="http://www.w3.org/2000/svg"><g><path d="m0 137.555 241.015-133.677c9.322-5.17 20.648-5.17 29.969 0l241.016 133.677z" fill="#aee69c"/><path d="m270.985 3.878c-9.321-5.17-20.648-5.17-29.969 0l-4.589 2.545 236.427 131.133h39.146z" fill="#89daa4"/><g><ellipse cx="256" cy="324.778" fill="#ffe179" rx="80.805" ry="80.844"/><path d="m256 243.934c-5.287 0-10.449.524-15.453 1.494 37.233 7.216 65.353 39.99 65.353 79.35s-28.12 72.134-65.353 79.35c5.003.97 10.166 1.494 15.453 1.494 44.628 0 80.805-36.195 80.805-80.844s-36.177-80.844-80.805-80.844z" fill="#fbd268"/><path d="m265.391 317.047h-1.665v-26.824h1.666c3.448 0 6.361 3.722 6.361 8.127 0 4.269 3.459 7.73 7.726 7.73s7.726-3.461 7.726-7.73c0-13.006-9.786-23.587-21.814-23.587h-1.666v-4.275c0-4.269-3.459-7.73-7.726-7.73s-7.726 3.461-7.726 7.73v4.275h-1.665c-12.029 0-21.814 10.581-21.814 23.587v10.571c0 13.006 9.786 23.587 21.814 23.587h1.665v26.824h-1.665c-3.448 0-6.362-3.722-6.362-8.127 0-4.269-3.459-7.73-7.726-7.73s-7.726 3.461-7.726 7.73c0 13.006 9.786 23.587 21.814 23.587h1.665v4.275c0 4.269 3.459 7.73 7.726 7.73 4.268 0 7.726-3.461 7.726-7.73v-4.275h1.666c12.028 0 21.814-10.581 21.814-23.587v-10.571c.001-13.006-9.784-23.587-21.814-23.587zm-18.783.001c-3.448 0-6.362-3.722-6.362-8.127v-10.571c0-4.405 2.913-8.127 6.362-8.127h1.665v26.824h-1.665zm25.146 34.157c0 4.405-2.913 8.127-6.361 8.127h-1.666v-26.825h1.665c3.449 0 6.362 3.722 6.362 8.127z" fill="#fff"/></g><ellipse cx="256" cy="74.476" fill="#3d6d93" rx="27.815" ry="27.828"/><path d="m256 46.648c-5.719 0-11.033 1.729-15.453 4.689 7.453 4.992 12.362 13.491 12.362 23.139s-4.909 18.146-12.362 23.139c4.42 2.961 9.734 4.689 15.453 4.689 15.362 0 27.815-12.459 27.815-27.828s-12.453-27.828-27.815-27.828z" fill="#335e80"/><g><path d="m481.095 465.62h-123.881l30.905-43.522h62.07z" fill="#aee69c"/><path d="m450.189 422.098h-30.905l30.905 43.522h30.906z" fill="#89daa4"/><path d="m481.095 183.935h-123.881l30.905 43.523h62.07z" fill="#aee69c"/><path d="m450.189 183.935-30.905 43.523h30.905l30.906-43.523z" fill="#89daa4"/><path d="m388.119 227.458h62.07v194.64h-62.07z" fill="#eaf6ff"/><path d="m419.284 227.458h30.905v194.64h-30.905z" fill="#d8ecfe"/></g><g><path d="m154.786 465.62h-123.881l30.906-43.522h62.07z" fill="#aee69c"/><path d="m154.786 183.935h-123.881l30.906 43.523h62.07z" fill="#aee69c"/><path d="m61.811 227.458h62.07v194.64h-62.07z" fill="#eaf6ff"/><path d="m123.881 422.098h-30.906l30.906 43.522h30.905z" fill="#89daa4"/><path d="m123.881 183.935-30.906 43.523h30.906l30.905-43.523z" fill="#89daa4"/><path d="m92.975 227.458h30.905v194.64h-30.905z" fill="#d8ecfe"/></g><path d="m0 137.555h512v23.19c0 12.807-10.378 23.19-23.179 23.19h-465.642c-12.801 0-23.179-10.382-23.179-23.19z" fill="#3d6d93"/><path d="m481.095 137.555v23.19c0 12.808-10.378 23.19-23.179 23.19h30.905c12.801 0 23.179-10.382 23.179-23.19v-23.19z" fill="#335e80"/><path d="m10.302 465.62h491.396c5.69 0 10.302 4.614 10.302 10.307v25.767c0 5.692-4.612 10.307-10.302 10.307h-491.396c-5.69-.001-10.302-4.615-10.302-10.308v-25.767c0-5.692 4.612-10.306 10.302-10.306z" fill="#3d6d93"/><path d="m501.698 465.62h-30.905c5.69 0 10.302 4.614 10.302 10.307v25.767c0 5.692-4.612 10.307-10.302 10.307h30.905c5.69 0 10.302-4.614 10.302-10.307v-25.767c0-5.693-4.612-10.307-10.302-10.307z" fill="#335e80"/></g></svg>