<svg id="Capa_1" enable-background="new 0 0 512 512" height="512" viewBox="0 0 512 512" width="512" xmlns="http://www.w3.org/2000/svg"><g><path d="m308.827 214.879h-29.439c12.477 0 22.591-10.114 22.591-22.591v-28.433c0-12.477-10.114-22.591-22.591-22.591h-244.371c-12.476 0-22.591 10.114-22.591 22.591v28.433c0 12.477 10.114 22.591 22.591 22.591h29.439c-12.476 0-22.591 10.114-22.591 22.591v28.433c0 12.442 10.058 22.532 22.486 22.588h-41.76c-12.477 0-22.591 10.114-22.591 22.59v28.433c0 12.477 10.114 22.591 22.591 22.591h20.604c-12.477 0-22.591 10.114-22.591 22.591v28.433c0 12.477 10.114 22.591 22.591 22.591h-15.453c-12.477 0-22.591 10.114-22.591 22.591v28.433c0 12.477 10.114 22.591 22.591 22.591h244.371c12.476 0 22.591-10.114 22.591-22.591v-28.433c0-12.477-10.114-22.591-22.591-22.591h15.453c12.477 0 22.591-10.114 22.591-22.591v-28.433c0-12.477-10.114-22.591-22.591-22.591h-20.604c12.476 0 22.591-10.114 22.591-22.591v-28.433c0-12.441-10.058-22.532-22.486-22.588h41.76c12.477 0 22.591-10.114 22.591-22.591v-28.433c0-12.476-10.114-22.59-22.591-22.59z" fill="#f1e64d"/><g fill="#ffc250"><path d="m289.554 321.557v17.966c0 12.475-10.116 22.582-22.592 22.582h-244.369c-12.475 0-22.592-10.106-22.592-22.582v-17.966c0 12.475 10.116 22.592 22.592 22.592h244.369c12.476 0 22.592-10.116 22.592-22.592z"/><path d="m331.419 247.945v17.966c0 12.475-10.116 22.582-22.592 22.582h-244.369c-12.475 0-22.592-10.106-22.592-22.582v-17.966c0 12.475 10.116 22.592 22.592 22.592h244.369c12.476 0 22.592-10.116 22.592-22.592z"/><path d="m301.98 174.331v17.966c0 12.475-10.116 22.582-22.592 22.582h-244.369c-12.475 0-22.592-10.106-22.592-22.582v-17.966c0 12.475 10.116 22.592 22.592 22.592h244.369c12.476 0 22.592-10.117 22.592-22.592z"/><path d="m310.158 395.172v17.966c0 12.475-10.116 22.582-22.592 22.582h-244.369c-12.475 0-22.592-10.106-22.592-22.582v-17.966c0 12.475 10.116 22.592 22.592 22.592h244.369c12.475 0 22.592-10.117 22.592-22.592z"/><path d="m294.705 468.787v17.966c0 12.475-10.116 22.582-22.592 22.582h-244.369c-12.475 0-22.592-10.106-22.592-22.582v-17.966c0 12.475 10.116 22.592 22.592 22.592h244.369c12.476-.001 22.592-10.117 22.592-22.592z"/><path d="m69.483 288.496h41.989c-12.472 0-22.588-10.116-22.588-22.588v-28.439c0-12.472 10.116-22.588 22.588-22.588h-29.459c-12.463-.011-22.568-10.122-22.568-22.588v-28.439c0-12.472 10.116-22.588 22.588-22.588h-47.007c-12.483 0-22.599 10.116-22.599 22.588v28.439c0 12.472 10.116 22.588 22.599 22.588h29.419c-12.474.011-22.579 10.122-22.579 22.588v28.439c0 12.43 10.049 22.518 22.475 22.585h-41.742c-12.483 0-22.599 10.116-22.599 22.588v28.439c0 12.472 10.116 22.588 22.599 22.588h20.581c-12.473.012-22.577 10.123-22.577 22.588v28.439c0 12.465 10.104 22.575 22.577 22.588h-15.43c-12.483 0-22.599 10.116-22.599 22.588v28.439c0 12.472 10.116 22.588 22.599 22.588h47.007c-12.472 0-22.588-10.116-22.588-22.588v-28.439c0-12.465 10.104-22.575 22.566-22.588h15.475c-12.472 0-22.588-10.116-22.588-22.588v-28.439c0-12.472 10.116-22.588 22.588-22.588h-20.626c-12.462-.012-22.566-10.123-22.566-22.588v-28.439c.001-12.43 10.05-22.517 22.465-22.585z"/></g><circle cx="367.223" cy="364.561" fill="#f1e64d" r="144.777"/><path d="m379.467 508.82c-4.031.349-8.117.516-12.246.516-79.961 0-144.775-64.814-144.775-144.775s64.814-144.775 144.775-144.775c4.128 0 8.215.167 12.246.516-74.242 6.207-132.543 68.412-132.543 144.258s58.301 138.053 132.543 144.26z" fill="#ffc250"/><circle cx="367.223" cy="364.561" fill="#ffc250" r="97.761"/><path d="m382.474 356.543c-2.734-.796-5.535-1.633-8.326-2.506v-34.237c8.296 1.226 13.25 4.72 13.624 4.991 3.395 2.537 8.208 1.865 10.777-1.516 2.581-3.398 1.919-8.245-1.479-10.826-.497-.378-9.036-6.704-22.922-8.197v-6.675c0-4.267-3.459-7.726-7.726-7.726s-7.726 3.459-7.726 7.726v7.171c-1.49.252-3.013.565-4.569.951-13.025 3.232-22.751 13.17-24.776 25.318-1.708 10.248 2.473 20 10.91 25.451 4.641 2.998 10.445 5.748 18.435 8.663v43.366c-8.021-.338-13.324-1.689-22.049-6.39-3.759-2.024-8.445-.619-10.467 3.138-2.024 3.757-.62 8.443 3.137 10.467 11.535 6.214 19.003 7.882 29.379 8.248v7.587c0 4.267 3.459 7.726 7.726 7.726s7.726-3.459 7.726-7.726v-8.089c20.354-3.04 32.758-17.492 34.75-31.74 2.243-16.043-8.129-29.85-26.424-35.175zm-33.829-13.056c-4.651-3.004-4.383-7.945-4.052-9.93.805-4.827 4.709-10.741 13.254-12.861.286-.071.566-.13.849-.194v28.052c-3.833-1.594-7.286-3.281-10.051-5.067zm44.95 46.09c-1.086 7.763-7.972 15.619-19.447 18.159v-37.542c1.298.39 2.625.784 4.006 1.186 10.983 3.196 16.61 9.829 15.441 18.197z" fill="#f1e64d"/><g><path d="m195.598 311.652v-119.187h20.373c24.735 0 40.194-26.777 27.825-48.197l-65.299-113.089c-12.367-21.418-43.281-21.419-55.649-.001l-65.306 113.089c-12.37 21.42 3.089 48.199 27.824 48.199h20.383v119.187c0 11.167 9.053 20.219 20.219 20.219h49.41c11.168-.001 20.22-9.053 20.22-20.22z" fill="#95d6a4"/><path d="m144.57 331.874h-18.604c-11.163 0-20.213-9.049-20.213-20.213v-119.2h-20.39c-24.735 0-40.195-26.772-27.817-48.197l65.296-113.086c6.184-10.707 17.006-16.055 27.827-16.055-7.249 0-14.499 5.348-18.635 16.055l-43.746 113.087c-8.294 21.424 2.068 48.197 18.635 48.197h8.377c8.683 0 15.722 7.039 15.722 15.722v103.467c0 11.167 6.069 20.223 13.548 20.223z" fill="#78c2a4"/></g><g fill="#f7f493"><path d="m376.865 162.14-.591-2.205c-2.084-7.778 2.21-15.842 9.827-18.453l23.43-8.033c8.392-2.877 17.466 1.955 19.762 10.525l1.468 5.48c2.296 8.57-3.146 17.291-11.852 18.996l-24.307 4.758c-7.902 1.546-15.653-3.29-17.737-11.068z"/><path d="m339.436 96.129-1.614-1.614c-5.694-5.694-6.007-14.824-.716-20.895l16.275-18.672c5.829-6.688 16.104-7.04 22.377-.767l4.012 4.012c6.273 6.273 5.921 16.548-.767 22.377l-18.673 16.275c-6.07 5.291-15.2 4.978-20.894-.716z"/><path d="m274.016 57.677-2.205-.591c-7.778-2.084-12.614-9.835-11.067-17.737l4.758-24.307c1.704-8.707 10.426-14.149 18.996-11.852l5.48 1.468c8.57 2.296 13.402 11.37 10.525 19.762l-8.033 23.43c-2.612 7.617-10.676 11.911-18.454 9.827z"/></g></g></svg>